# xmcd
#
# Track frame offsets:
# 150
# 21143
# 42115
# 61836
# 90213
# 108468
# 130000
# 153002
# 174907
# 200911
# 216118
#
# Disc length: 3203 seconds
#
#
# Revision: 0
# Processed by: cddbd v1.5.2PL0 Copyright (c) Steve Scherf et al.
# Submitted via: FreeRIP 2.96 
#
DISCID=830c810b
DTITLE=MOACIR LAURENTINO E ZÉ VIOLA - Os Grandes Repentistas Do Nordeste Vol.4
DYEAR=1900
DGENRE=Repentista
TTITLE0=TRIBUTO A JESUS
TTITLE1=AS COISAS QUE DEIXEI, NO LUGAR QUE FUI CRIADO
TTITLE2=TEIMA DE CANTADORES
TTITLE3=PAREDES ESTRANHAS
TTITLE4=PENSAMENTOS
TTITLE5=SEPARAÇÃO
TTITLE6=A VOCÊ DEFICIENTE,MINHA SOLIDARIEDADE
TTITLE7=AMOR ESCONDIDO
TTITLE8=DEFENDENDO A NATUREZA
TTITLE9=MINHA MÃE
TTITLE10=MORTE, CAMINHO DA VIDA
EXTD=
EXTT0=
EXTT1=
EXTT2=
EXTT3=
EXTT4=
EXTT5=
EXTT6=
EXTT7=
EXTT8=
EXTT9=
EXTT10=
PLAYORDER=
